<svg xmlns="http://www.w3.org/2000/svg" xmlns:xlink="http://www.w3.org/1999/xlink" width="792" height="328" viewBox="0 0 594 246"><clipPath id="a"><path transform="matrix(.75 0 0 .75 -7.625 1)" d="M-2-2h811v329H-2V-2z"/></clipPath><g clip-path="url(#a)"><path d="M-8.375.25h606.75V17.5H-8.375V.25z" fill="#ffd966"/><path d="M-8.375 16.75h76.5V245.5h-76.5V16.75z" fill="#ffd966"/><path d="M67.375 16.75h76.5V50.5h-76.5V16.75z" fill="#fce5cd"/><path d="M143.125 16.75h76.5V50.5h-76.5V16.75z" fill="#b7b7b7"/><path d="M218.875 16.75h76.5V50.5h-76.5V16.75z" fill="#fce5cd"/><path d="M294.625 16.75h303.75V50.5h-303.75V16.75zM67.375 49.75h152.25V115H67.375V49.75z" fill="#b7b7b7"/><path d="M218.875 49.75h76.5V83.5h-76.5V49.75z" fill="#f90"/><path d="M294.625 49.75h76.5V83.5h-76.5V49.75z" fill="#b7b7b7"/><path d="M370.375 49.75h76.5V83.5h-76.5V49.75z" fill="#f90"/><path d="M446.125 49.75h152.25V83.5h-152.25V49.75z" fill="#b7b7b7"/><path d="M218.875 82.75h379.5V115h-379.5V82.75z" fill="#b7b7b7"/><path d="M67.375 114.25h76.5V148h-76.5v-33.75z" fill="#f90"/><path d="M143.125 114.25h76.5V148h-76.5v-33.75z" fill="#b7b7b7"/><path d="M218.875 114.25h76.5V148h-76.5v-33.75z" fill="#f90"/><path d="M294.625 114.25h76.5V148h-76.5v-33.75z" fill="#b6d7a8"/><path d="M370.375 114.25h76.5V148h-76.5v-33.75z" fill="#f90"/><path d="M446.125 114.25h152.25V148h-152.25v-33.75zM67.375 147.25h303.75V196H67.375v-48.75z" fill="#b7b7b7"/><path d="M370.375 147.25h76.5v32.25h-76.5v-32.25z" fill="#f90"/><path d="M446.125 147.25h152.25v32.25h-152.25v-32.25z" fill="#b7b7b7"/><path d="M370.375 178.75h228V196h-228v-17.25z" fill="#b7b7b7"/><path d="M67.375 195.25h152.25V229H67.375v-33.75z" fill="#ea9999"/><path d="M218.875 195.25h379.5v17.25h-379.5v-17.25z" fill="#b7b7b7"/><path d="M218.875 211.75h152.25V229h-152.25v-17.25z" fill="#ea9999"/><path d="M370.375 211.75h228V229h-228v-17.25zM67.375 228.25h152.25v17.25H67.375v-17.25z" fill="#b7b7b7"/><path d="M218.875 228.25h152.25v17.25h-152.25v-17.25z" fill="#ea9999"/><path d="M370.375 228.25h228v17.25h-228v-17.25z" fill="#b7b7b7"/><symbol id="b"><path d="M.347.054A.18.18 0 00.342.012a.02.02 0 00-.006-.01A.012.012 0 00.328 0h-.29c-.01 0-.02.003-.027.01C.004.015 0 .025 0 .04v.574C0 .618.001.62.003.623a.024.024 0 00.01.006.28.28 0 00.102 0 .02.02 0 00.01-.006A.013.013 0 00.13.614V.106h.199A.012.012 0 00.336.103.017.017 0 00.342.094a.169.169 0 00.005-.04z"/></symbol><symbol id="c"><path d="M.416.028L.413.019A.019.019 0 00.404.013.173.173 0 00.363.008a.193.193 0 00-.042.005.019.019 0 00-.008.006.016.016 0 00-.002.009v.05A.275.275 0 00.237.02.164.164 0 00.16 0a.175.175 0 00-.076.015.133.133 0 00-.05.04.167.167 0 00-.026.058A.377.377 0 000 .197v.266C0 .467 0 .47.002.472a.02.02 0 00.01.006.256.256 0 00.097 0A.02.02 0 00.12.472.012.012 0 00.124.463V.217c0-.023.001-.04.004-.052A.097.097 0 01.14.134a.068.068 0 01.023-.02.074.074 0 01.033-.007.08.08 0 01.047.017.277.277 0 01.05.05v.29c0 .003.001.005.003.008a.02.02 0 00.01.006.248.248 0 00.097 0 .02.02 0 00.01-.006.012.012 0 00.003-.009V.028z"/></symbol><symbol id="d"><path d="M.416.02A.014.014 0 00.413.01a.023.023 0 00-.01-.005.243.243 0 00-.097 0 .023.023 0 00-.01.006.014.014 0 00-.003.009v.248a.2.2 0 01-.004.05.092.092 0 01-.014.03.057.057 0 01-.023.02.067.067 0 01-.032.008.081.081 0 01-.047-.017.256.256 0 01-.05-.05V.02A.014.014 0 00.12.012.023.023 0 00.11.005a.248.248 0 00-.097 0 .023.023 0 00-.01.006A.014.014 0 000 .02v.435c0 .003 0 .006.002.008a.017.017 0 00.01.007l.015.003a.184.184 0 00.052 0A.051.051 0 00.094.47.017.017 0 00.103.463.014.014 0 00.105.455v-.05a.278.278 0 00.073.058c.025.013.051.02.078.02A.17.17 0 00.331.468a.128.128 0 00.05-.04A.157.157 0 00.407.37.343.343 0 00.416.289v-.27z"/></symbol><symbol id="e"><path d="M.428.258C.428.243.424.232.418.225A.035.035 0 00.39.215H.125A.19.19 0 01.131.163.103.103 0 01.152.125.095.095 0 01.19.101.161.161 0 01.244.093a.323.323 0 01.129.025.053.053 0 00.019.005L.399.12C.4.12.403.118.404.115A.167.167 0 00.407.064L.405.05A.035.035 0 00.402.04.033.033 0 00.397.036.055.055 0 00.38.025a.297.297 0 00-.087-.02.395.395 0 00-.162.01.181.181 0 00-.073.044.187.187 0 00-.044.075A.359.359 0 000 .241c0 .038.005.073.015.104.01.031.025.058.044.08.02.021.043.038.07.05A.243.243 0 00.222.49.242.242 0 00.315.475.167.167 0 00.416.363.295.295 0 00.428.278v-.02m-.12.035a.124.124 0 01-.02.082C.273.395.25.405.219.405a.09.09 0 01-.04-.01.085.085 0 01-.03-.023.111.111 0 01-.017-.036.18.18 0 01-.007-.043h.184z"/></symbol><symbol id="f"><path d="M.333.15A.144.144 0 00.318.086.128.128 0 00.28.038.174.174 0 00.22.01.276.276 0 00.097.004a.287.287 0 00-.069.02.078.078 0 00-.017.011.036.036 0 00-.008.016A.202.202 0 000 .106c0 .006.002.01.003.014s.003.006.005.007a.013.013 0 00.007.002.494.494 0 01.078-.033.164.164 0 01.077-.003.071.071 0 01.022.01.04.04 0 01.015.016.05.05 0 01.005.022c0 .01-.003.018-.01.025A.074.074 0 01.18.185a.255.255 0 01-.034.014 1.036 1.036 0 00-.077.034.126.126 0 00-.058.064.142.142 0 00-.009.053c0 .02.005.04.013.057.008.018.02.033.035.045a.167.167 0 00.055.029.251.251 0 00.114.007.289.289 0 00.062-.017.064.064 0 00.015-.009.02.02 0 00.007-.007.028.028 0 00.003-.009L.307.434.308.415A.19.19 0 00.305.38.012.012 0 00.3.374.015.015 0 00.293.372.034.034 0 00.28.377a.2.2 0 01-.056.022.146.146 0 01-.07.002.055.055 0 01-.02-.01.042.042 0 01-.016-.033c0-.01.003-.019.01-.025A.085.085 0 01.151.314.284.284 0 01.186.3.643.643 0 00.264.266.146.146 0 00.3.24.121.121 0 00.333.15z"/></symbol><use xlink:href="#b" transform="matrix(10.725 0 0 -10.725 92.863 12.57)"/><use xlink:href="#c" transform="matrix(10.725 0 0 -10.725 97.285 12.69)"/><use xlink:href="#d" transform="matrix(10.725 0 0 -10.725 103.06 12.6)"/><use xlink:href="#e" transform="matrix(10.725 0 0 -10.725 108.536 12.69)"/><use xlink:href="#f" transform="matrix(10.725 0 0 -10.725 113.925 12.69)"/><symbol id="g"><path d="M.736.02A.014.014 0 00.733.013C.732.009.73.007.723.005a.248.248 0 00-.096 0 .02.02 0 00-.01.007.014.014 0 00-.002.009v.514H.614L.43.02a.026.026 0 00-.007-.01.033.033 0 00-.012-.007.348.348 0 00-.095.001.04.04 0 00-.012.007A.019.019 0 00.3.02L.123.535H.122V.02A.014.014 0 00.119.01L.109.006a.236.236 0 00-.097 0 .02.02 0 00-.01.007A.016.016 0 000 .02v.562C0 .6.004.613.013.622c.009.008.02.013.035.013h.084A.166.166 0 00.171.63.07.07 0 00.218.596C.223.587.228.576.232.562L.369.186H.37L.512.56a.214.214 0 00.014.035c.005.01.01.017.017.023.007.006.015.01.024.012.01.002.02.004.032.004h.087A.065.065 0 00.708.63a.036.036 0 00.016-.01.038.038 0 00.009-.016.062.062 0 00.003-.022V.021z"/></symbol><symbol id="h"><path d="M.398.026a.013.013 0 00-.005-.01A.032.032 0 00.377.01a.178.178 0 00-.03-.002.19.19 0 00-.033.002A.027.027 0 00.3.016a.015.015 0 00-.004.01v.035A.197.197 0 00.235.016.21.21 0 00.095.01a.124.124 0 00-.083.07A.15.15 0 000 .143a.121.121 0 00.06.112.22.22 0 00.073.027C.163.287.196.29.235.29h.042v.026a.129.129 0 01-.004.036.055.055 0 01-.04.041A.205.205 0 01.14.391a.32.32 0 01-.073-.03.044.044 0 00-.02-.007.016.016 0 00-.01.003.029.029 0 00-.007.01.132.132 0 00-.003.06.035.035 0 00.01.016A.262.262 0 00.1.475.35.35 0 00.293.48a.144.144 0 00.06-.03.118.118 0 00.034-.054.25.25 0 00.01-.078V.026m-.12.187H.23A.252.252 0 01.18.208.097.097 0 01.146.195a.056.056 0 01-.02-.021A.065.065 0 01.12.146C.12.127.126.113.137.103A.07.07 0 01.186.087C.203.087.219.09.233.1.248.11.263.122.277.14v.074z"/></symbol><symbol id="i"><path d="M.28.415A.345.345 0 00.276.368C.275.364.273.361.27.36A.012.012 0 00.263.357a.03.03 0 00-.01.001.146.146 0 01-.04.01.052.052 0 01-.02-.005A.084.084 0 01.17.351.176.176 0 01.148.327.416.416 0 01.123.291V.02A.014.014 0 00.12.01.023.023 0 00.11.006a.248.248 0 00-.097 0 .023.023 0 00-.01.006A.014.014 0 000 .02v.435c0 .003 0 .006.002.008a.017.017 0 00.01.007l.015.003a.184.184 0 00.052 0A.051.051 0 00.094.47.017.017 0 00.103.463.014.014 0 00.105.455V.401a.33.33 0 00.061.065c.01.006.018.01.027.013a.1.1 0 00.041.003L.25.479A.068.068 0 00.27.471.012.012 0 00.275.466.032.032 0 00.278.458L.279.442V.415z"/></symbol><symbol id="j"><path d="M.308.07A.145.145 0 00.305.035.036.036 0 00.298.02.044.044 0 00.285.012.171.171 0 00.24.002a.243.243 0 00-.09.007.107.107 0 00-.045.029.121.121 0 00-.025.048.256.256 0 00-.009.07v.223H.02C.013.379.009.383.005.39A.11.11 0 000 .43l.001.024a.06.06 0 00.004.015.019.019 0 00.006.008A.016.016 0 00.02.48H.07v.097c0 .003.001.006.003.008a.02.02 0 00.01.007.256.256 0 00.098 0A.02.02 0 00.19.584.014.014 0 00.194.576V.479h.095C.292.479.295.478.297.476A.017.017 0 00.303.468a.165.165 0 000-.078C.3.383.295.38.29.38H.194V.174c0-.023.004-.041.011-.053.008-.012.02-.018.04-.018a.096.096 0 01.031.005 1.366 1.366 0 00.018.006C.296.114.298.114.3.112.302.112.303.11.304.105A.141.141 0 00.308.07z"/></symbol><use xlink:href="#g" transform="matrix(10.725 0 0 -10.725 165.613 12.6)"/><use xlink:href="#h" transform="matrix(10.725 0 0 -10.725 174.62 12.69)"/><use xlink:href="#i" transform="matrix(10.725 0 0 -10.725 180.196 12.6)"/><use xlink:href="#j" transform="matrix(10.725 0 0 -10.725 183.464 12.674)"/><use xlink:href="#e" transform="matrix(10.725 0 0 -10.725 187.442 12.69)"/><use xlink:href="#f" transform="matrix(10.725 0 0 -10.725 192.831 12.69)"/><symbol id="k"><path d="M.132.02A.014.014 0 00.13.01.023.023 0 00.12.006a.248.248 0 00-.097 0 .023.023 0 00-.01.006A.014.014 0 00.01.02v.434C.01.457.01.46.012.462a.02.02 0 00.01.007.079.079 0 00.019.004A.248.248 0 00.119.47.02.02 0 00.13.462.012.012 0 00.132.454V.02m.01.583C.142.578.137.56.126.55.116.541.098.537.07.537.043.537.024.542.014.551.004.56 0 .576 0 .6c0 .024.005.04.015.05.01.01.029.015.056.015C.1.666.117.661.127.652c.01-.01.015-.026.015-.05z"/></symbol><symbol id="l"><path d="M.356.097A.2.2 0 00.35.05.035.035 0 00.343.042a.126.126 0 00-.02-.014A.213.213 0 00.25.004a.24.24 0 00-.133.012.169.169 0 00-.065.046.208.208 0 00-.04.074.35.35 0 00-.013.1C0 .28.005.319.016.35a.219.219 0 00.046.079c.02.02.043.036.07.046a.247.247 0 00.16.003A.176.176 0 00.34.452a.039.039 0 00.008-.01A.022.022 0 00.35.433.18.18 0 00.35.358C.346.35.342.347.336.347A.03.03 0 00.32.354a.484.484 0 01-.022.015.164.164 0 01-.03.015.116.116 0 01-.042.007A.083.083 0 01.15.354.19.19 0 01.126.246C.126.222.128.2.132.184A.135.135 0 01.151.139.084.084 0 01.182.11.104.104 0 01.226.103C.243.103.257.105.27.11c.012.005.023.01.032.017l.023.017C.33.149.336.15.34.15c.003 0 .006 0 .008-.002S.35.144.352.139A.288.288 0 00.356.097z"/></symbol><symbol id="m"><path d="M.467.25A.333.333 0 00.452.148a.198.198 0 00-.12-.13A.28.28 0 00.229 0a.288.288 0 00-.101.016.182.182 0 00-.113.123A.352.352 0 000 .24c0 .037.005.071.015.102C.025.373.04.4.06.422c.02.022.044.04.074.051a.28.28 0 00.105.018A.29.29 0 00.34.475.173.173 0 00.411.43.193.193 0 00.453.353.354.354 0 00.467.25M.34.245a.302.302 0 01-.005.06.136.136 0 01-.017.047.086.086 0 01-.033.03.103.103 0 01-.05.012.106.106 0 01-.048-.01.083.083 0 01-.034-.03.14.14 0 01-.02-.046.31.31 0 01-.001-.121A.15.15 0 01.149.14.086.086 0 01.182.11a.109.109 0 01.05-.01C.251.098.267.1.281.107a.089.089 0 01.033.03.134.134 0 01.02.045.275.275 0 01.006.062z"/></symbol><symbol id="n"><path d="M.123.02A.014.014 0 00.12.01.023.023 0 00.11.006a.248.248 0 00-.097 0 .023.023 0 00-.01.006A.014.014 0 000 .02v.642C0 .665.001.668.003.67a.02.02 0 00.01.007.079.079 0 00.019.004A.248.248 0 00.11.677.02.02 0 00.12.67.014.014 0 00.123.662V.02z"/></symbol><use xlink:href="#g" transform="matrix(10.725 0 0 -10.725 235.363 12.6)"/><use xlink:href="#k" transform="matrix(10.725 0 0 -10.725 244.559 12.6)"/><use xlink:href="#e" transform="matrix(10.725 0 0 -10.725 247.014 12.69)"/><use xlink:href="#i" transform="matrix(10.725 0 0 -10.725 252.68 12.6)"/><use xlink:href="#l" transform="matrix(10.725 0 0 -10.725 256.205 12.685)"/><use xlink:href="#m" transform="matrix(10.725 0 0 -10.725 260.688 12.69)"/><use xlink:href="#n" transform="matrix(10.725 0 0 -10.725 266.73 12.6)"/><use xlink:href="#e" transform="matrix(10.725 0 0 -10.725 269.086 12.69)"/><use xlink:href="#f" transform="matrix(10.725 0 0 -10.725 274.475 12.69)"/><symbol id="o"><path d="M.262.186A.334.334 0 00.253.108.143.143 0 00.226.049a.12.12 0 00-.05-.036.206.206 0 00-.107-.01.198.198 0 00-.047.012.042.042 0 00-.011.007.038.038 0 00-.008.016.37.37 0 000 .081c.001.004.003.007.005.009A.012.012 0 00.016.13a.546.546 0 01.04-.017A.08.08 0 01.08.111a.07.07 0 01.023.004.036.036 0 01.016.012.065.065 0 01.01.025c.003.01.004.023.004.039v.434c0 .003 0 .006.003.008a.024.024 0 00.01.007.28.28 0 00.102 0C.253.638.256.636.258.633A.011.011 0 00.262.625v-.44z"/></symbol><symbol id="p"><path d="M.452.456V.45L.45.442A.13.13 0 00.445.42L.315.025A.038.038 0 00.307.013.027.027 0 00.294.005a.734.734 0 00-.136 0 .03.03 0 00-.014.008.045.045 0 00-.006.013L.007.42A.397.397 0 000 .45v.006c0 .003 0 .006.002.008a.02.02 0 00.01.006l.019.004A.39.39 0 00.112.47C.117.468.121.466.122.463a.034.034 0 00.005-.01l.1-.32.002-.011.003.012.098.32a.027.027 0 00.004.01.02.02 0 00.01.006l.019.003A.253.253 0 00.44.47.017.017 0 00.45.464.014.014 0 00.451.456z"/></symbol><use xlink:href="#o" transform="matrix(10.725 0 0 -10.725 317.89 12.674)"/><use xlink:href="#c" transform="matrix(10.725 0 0 -10.725 322.059 12.69)"/><use xlink:href="#e" transform="matrix(10.725 0 0 -10.725 327.561 12.69)"/><use xlink:href="#p" transform="matrix(10.725 0 0 -10.725 332.683 12.6)"/><use xlink:href="#e" transform="matrix(10.725 0 0 -10.725 338.029 12.69)"/><use xlink:href="#f" transform="matrix(10.725 0 0 -10.725 343.418 12.69)"/><symbol id="q"><path d="M.372.025A.044.044 0 00.366.012.027.027 0 00.353.004a.64.64 0 00-.137 0 .043.043 0 00-.01.005A.025.025 0 00.2.016a.097.097 0 00-.004.01l-.188.56a.17.17 0 00-.007.029C0 .622 0 .627.006.63c.004.003.01.006.02.006A.439.439 0 00.123.633C.127.632.13.63.132.626A.062.062 0 00.137.614L.29.126l.151.485c.001.006.003.01.005.014a.02.02 0 00.01.008.517.517 0 00.091.003C.556.636.562.633.565.63.568.625.57.62.568.613A.16.16 0 00.561.586L.372.026z"/></symbol><use xlink:href="#q" transform="matrix(10.725 0 0 -10.725 391.494 12.6)"/><use xlink:href="#k" transform="matrix(10.725 0 0 -10.725 398.274 12.6)"/><use xlink:href="#e" transform="matrix(10.725 0 0 -10.725 400.729 12.69)"/><use xlink:href="#i" transform="matrix(10.725 0 0 -10.725 406.396 12.6)"/><use xlink:href="#d" transform="matrix(10.725 0 0 -10.725 410.203 12.6)"/><use xlink:href="#e" transform="matrix(10.725 0 0 -10.725 415.68 12.69)"/><use xlink:href="#f" transform="matrix(10.725 0 0 -10.725 421.069 12.69)"/><symbol id="r"><path d="M0 .246l.14.013A.172.172 0 01.193.155.157.157 0 01.297.122c.046 0 .081.01.105.03.024.02.035.042.035.069a.064.064 0 01-.015.043.116.116 0 01-.051.03 1.779 1.779 0 01-.116.032.393.393 0 00-.163.071.186.186 0 00-.035.246c.02.032.05.056.089.073A.36.36 0 00.287.74C.377.74.444.72.49.68A.208.208 0 00.562.525L.417.518C.411.554.397.58.377.597S.327.62.286.62A.165.165 0 01.187.595.052.052 0 01.164.551c0-.017.007-.032.022-.044A.38.38 0 01.318.46.685.685 0 00.474.408.197.197 0 00.582.22a.21.21 0 00-.13-.195A.409.409 0 00.294 0a.31.31 0 00-.208.063A.274.274 0 000 .245z"/></symbol><symbol id="s"><path d="M.139.372L.014.395c.014.05.038.087.072.11A.264.264 0 00.24.543.325.325 0 00.375.52.133.133 0 00.438.465.278.278 0 00.457.342L.456.182c0-.045.002-.08.006-.1a.304.304 0 01.025-.07H.35a.505.505 0 00-.018.056.247.247 0 00-.075-.05A.215.215 0 00.172 0a.178.178 0 00-.126.043.145.145 0 00-.046.11c0 .03.007.056.021.078.014.024.034.041.059.053a.456.456 0 00.109.032.748.748 0 01.133.034v.014C.322.39.316.409.302.42.29.43.266.437.23.437A.097.097 0 01.172.422a.099.099 0 01-.033-.05M.322.261A.858.858 0 00.24.24.252.252 0 01.164.216.057.057 0 01.137.167c0-.019.007-.035.022-.05a.075.075 0 01.054-.02c.025 0 .049.008.071.024a.086.086 0 01.033.046.27.27 0 01.005.066v.028M.174.594L.24.74h.154L.261.594H.174z"/></symbol><symbol id="t"><path d="M0 .012v.716h.137V.47a.202.202 0 00.307.003C.486.428.506.362.506.276A.299.299 0 00.443.072a.197.197 0 00-.316.016V.012H0m.136.27A.22.22 0 01.162.163.109.109 0 01.256.108c.03 0 .056.013.077.039.022.026.033.067.033.123C.366.329.355.37.333.397a.102.102 0 01-.082.04.103.103 0 01-.082-.039C.147.373.136.334.136.282z"/></symbol><symbol id="u"><path d="M.139.372L.014.395c.014.05.038.087.072.11A.264.264 0 00.24.543.325.325 0 00.375.52.133.133 0 00.438.465.278.278 0 00.457.342L.456.182c0-.045.002-.08.006-.1a.304.304 0 01.025-.07H.35a.505.505 0 00-.018.056.247.247 0 00-.075-.05A.215.215 0 00.172 0a.178.178 0 00-.126.043.145.145 0 00-.046.11c0 .03.007.056.021.078.014.024.034.041.059.053a.456.456 0 00.109.032.748.748 0 01.133.034v.014C.322.39.316.409.302.42.29.43.266.437.23.437A.097.097 0 01.172.422a.099.099 0 01-.033-.05M.322.261A.858.858 0 00.24.24.252.252 0 01.164.216.057.057 0 01.137.167c0-.019.007-.035.022-.05a.075.075 0 01.054-.02c.025 0 .049.008.071.024a.086.086 0 01.033.046.27.27 0 01.005.066v.028z"/></symbol><symbol id="v"><path d="M.506.012H.38v.076A.208.208 0 00.304.02.193.193 0 00.217 0c-.06 0-.11.024-.154.072a.295.295 0 00-.063.2c0 .089.02.156.062.201A.202.202 0 00.369.47v.258h.137V.012M.14.282c0-.055.008-.095.023-.12A.104.104 0 01.256.108c.031 0 .058.014.08.04C.36.175.37.216.37.27c0 .06-.011.102-.033.128a.102.102 0 01-.082.04.104.104 0 01-.082-.04C.15.373.14.335.14.283z"/></symbol><symbol id="w"><path d="M0 .278c0 .046.011.09.034.133a.232.232 0 00.095.097.285.285 0 00.138.034.258.258 0 00.268-.27A.268.268 0 00.46.077.256.256 0 00.269 0a.303.303 0 00-.137.032.222.222 0 00-.098.094A.316.316 0 000 .278M.14.271C.14.22.154.181.178.153a.116.116 0 01.09-.041c.036 0 .066.013.09.04.025.028.037.068.037.12 0 .05-.012.09-.037.117a.115.115 0 01-.09.041.116.116 0 01-.09-.04C.153.361.141.321.141.27z"/></symbol><use xlink:href="#r" transform="matrix(9.75 0 0 -9.75 466.727 13.308)"/><use xlink:href="#s" transform="matrix(9.75 0 0 -9.75 473.216 13.298)"/><use xlink:href="#t" transform="matrix(9.75 0 0 -9.75 478.932 13.298)"/><use xlink:href="#u" transform="matrix(9.75 0 0 -9.75 484.585 13.298)"/><use xlink:href="#v" transform="matrix(9.75 0 0 -9.75 490.058 13.298)"/><use xlink:href="#w" transform="matrix(9.75 0 0 -9.75 495.996 13.298)"/><symbol id="x"><path d="M0 .716h.264C.324.716.37.71.4.702A.24.24 0 00.508.636.312.312 0 00.577.52.526.526 0 00.6.351.47.47 0 00.578.2.316.316 0 00.501.072.254.254 0 00.4.015.437.437 0 00.272 0H0v.716M.145.595V.12h.107c.04 0 .07.002.088.006a.132.132 0 01.058.03.15.15 0 01.038.07.47.47 0 01.015.13.428.428 0 01-.015.128.164.164 0 01-.041.07.138.138 0 01-.067.033.655.655 0 01-.119.007H.145z"/></symbol><symbol id="y"><path d="M0 .519h.126V.448c.046.055.1.082.162.082A.174.174 0 00.375.51a.158.158 0 00.06-.062.24.24 0 00.073.062.18.18 0 00.085.02C.63.53.663.522.689.507A.14.14 0 00.75.439.295.295 0 00.763.332V0H.625v.296c0 .052-.004.085-.014.1C.6.416.58.426.553.426A.094.094 0 01.499.407.098.098 0 01.462.356.368.368 0 01.45.249V0H.313v.284c0 .05-.002.083-.007.098a.062.062 0 01-.023.033.07.07 0 01-.041.01A.095.095 0 01.148.36a.375.375 0 01-.01-.107V0H0v.519z"/></symbol><symbol id="z"><path d="M0 .589v.127h.137V.589H0M0 0v.519h.137V0H0z"/></symbol><symbol id="A"><path d="M.473 0H.335v.265a.406.406 0 01-.008.108.076.076 0 01-.077.052.11.11 0 01-.063-.02.1.1 0 01-.04-.051.458.458 0 01-.01-.12V0H0v.519h.127V.442A.208.208 0 00.298.53C.328.53.356.525.381.514a.135.135 0 00.084-.1.416.416 0 00.008-.092V0z"/></symbol><symbol id="B"><path d="M.018.176L.175.157C.177.14.183.127.193.12.206.11.226.105.254.105a.16.16 0 01.081.016.066.066 0 01.027.035.208.208 0 01.007.063v.075A.186.186 0 00.213.21C.143.21.09.24.048.3A.3.3 0 000 .473C0 .56.02.626.063.672A.203.203 0 00.218.74.19.19 0 00.377.656V.73h.129V.264A.464.464 0 00.49.126a.17.17 0 00-.043-.07.188.188 0 00-.073-.041A.382.382 0 00.26 0C.172 0 .11.015.073.045A.141.141 0 00.018.16v.016M.141.48C.14.425.15.385.172.36A.1.1 0 01.252.32a.11.11 0 01.084.04C.36.386.371.425.371.476c0 .054-.011.094-.033.12a.106.106 0 01-.084.039.102.102 0 01-.082-.039C.152.572.141.533.141.48z"/></symbol><use xlink:href="#x" transform="matrix(9.75 0 0 -9.75 539.08 13.184)"/><use xlink:href="#w" transform="matrix(9.75 0 0 -9.75 545.805 13.298)"/><use xlink:href="#y" transform="matrix(9.75 0 0 -9.75 551.962 13.184)"/><use xlink:href="#z" transform="matrix(9.75 0 0 -9.75 560.73 13.184)"/><use xlink:href="#A" transform="matrix(9.75 0 0 -9.75 563.42 13.184)"/><use xlink:href="#B" transform="matrix(9.75 0 0 -9.75 569.078 15.236)"/><use xlink:href="#w" transform="matrix(9.75 0 0 -9.75 575.016 13.298)"/><symbol id="C"><path d="M.314 0H.177v.517A.473.473 0 000 .413v.125a.4.4 0 01.117.066c.042.033.07.071.086.115h.111V0z"/></symbol><use xlink:href="#C" transform="matrix(9.75 0 0 -9.75 27.646 29.684)"/><symbol id="D"><path d="M.129.02A.013.013 0 00.125.013a.02.02 0 00-.01-.007.271.271 0 00-.102 0 .024.024 0 00-.01.007A.014.014 0 000 .02v.596l.003.009a.024.024 0 00.01.006.266.266 0 00.102 0 .02.02 0 00.01-.006A.013.013 0 00.13.617V.021z"/></symbol><symbol id="E"><path d="M.312.621L.311.598A.053.053 0 00.308.585.017.017 0 00.304.579.01.01 0 00.298.577c-.002 0-.005 0-.007.002a.1.1 0 01-.024.007.086.086 0 01-.02.002.056.056 0 01-.023-.005A.036.036 0 01.208.57a.06.06 0 01-.01-.023.177.177 0 01-.002-.035v-.04h.08C.277.472.28.47.282.469A.017.017 0 00.29.461a.165.165 0 000-.078C.286.376.282.373.275.373h-.08V.02A.014.014 0 00.194.01a.023.023 0 00-.01-.005.256.256 0 00-.098 0 .023.023 0 00-.01.006.016.016 0 00-.002.009v.352H.02C.012.372.008.376.004.383a.246.246 0 00-.003.063.082.082 0 00.003.015.019.019 0 00.006.008.016.016 0 00.009.003h.054v.036c0 .03.003.056.009.078a.14.14 0 00.027.056.118.118 0 00.048.033.192.192 0 00.105.008A.138.138 0 00.29.676.037.037 0 00.302.67.02.02 0 00.308.66.056.056 0 00.31.645L.312.62z"/></symbol><use xlink:href="#D" transform="matrix(10.725 0 0 -10.725 83.863 29.1)"/><use xlink:href="#d" transform="matrix(10.725 0 0 -10.725 86.638 29.1)"/><use xlink:href="#E" transform="matrix(10.725 0 0 -10.725 91.857 29.1)"/><use xlink:href="#e" transform="matrix(10.725 0 0 -10.725 95.503 29.19)"/><use xlink:href="#i" transform="matrix(10.725 0 0 -10.725 101.17 29.1)"/><use xlink:href="#e" transform="matrix(10.725 0 0 -10.725 104.705 29.19)"/><use xlink:href="#d" transform="matrix(10.725 0 0 -10.725 110.372 29.1)"/><use xlink:href="#l" transform="matrix(10.725 0 0 -10.725 115.838 29.185)"/><use xlink:href="#k" transform="matrix(10.725 0 0 -10.725 120.504 29.1)"/><use xlink:href="#h" transform="matrix(10.725 0 0 -10.725 122.943 29.19)"/><symbol id="F"><path d="M0 0v.716h.145V0H0z"/></symbol><symbol id="G"><path d="M0 .519h.076v.039C.076.6.081.634.09.655A.11.11 0 00.14.708c.025.013.057.02.095.02C.275.728.313.722.35.71L.332.615a.271.271 0 01-.063.008C.249.623.235.618.226.608.218.6.213.582.213.555V.52h.103V.41H.213V0H.076v.41H0V.52z"/></symbol><symbol id="H"><path d="M.34.177L.477.154A.225.225 0 00.394.039.245.245 0 00.25 0c-.09 0-.156.03-.2.088A.297.297 0 000 .268c0 .085.022.152.067.2a.222.222 0 00.17.074A.23.23 0 00.42.465C.465.415.486.337.484.231H.141A.14.14 0 01.174.136.104.104 0 01.253.103c.021 0 .04.005.054.017.015.012.026.03.033.057m.008.138c0 .04-.011.07-.03.09a.094.094 0 01-.072.032.095.095 0 01-.074-.033.127.127 0 01-.029-.089h.205z"/></symbol><symbol id="I"><path d="M.137 0H0v.519h.127V.445a.224.224 0 00.059.069.11.11 0 00.06.016.174.174 0 00.09-.026L.293.384A.12.12 0 01.23.408.075.075 0 01.18.391C.167.381.156.361.148.334A.832.832 0 01.138.16V0z"/></symbol><symbol id="J"><path d="M.482.377L.347.353a.098.098 0 01-.031.06.093.093 0 01-.063.021.103.103 0 01-.082-.036C.151.375.141.336.141.28c0-.061.01-.105.03-.13A.103.103 0 01.256.112c.026 0 .048.007.064.022.017.015.029.04.035.076L.49.188a.24.24 0 00-.08-.14A.25.25 0 00.249 0a.238.238 0 00-.182.072A.279.279 0 000 .27c0 .085.023.152.068.2A.24.24 0 00.25.541a.248.248 0 00.15-.041.224.224 0 00.081-.124z"/></symbol><use xlink:href="#F" transform="matrix(9.75 0 0 -9.75 234.542 29.684)"/><use xlink:href="#A" transform="matrix(9.75 0 0 -9.75 237.266 29.684)"/><use xlink:href="#G" transform="matrix(9.75 0 0 -9.75 242.638 29.684)"/><use xlink:href="#H" transform="matrix(9.75 0 0 -9.75 246.08 29.798)"/><use xlink:href="#I" transform="matrix(9.75 0 0 -9.75 251.834 29.684)"/><use xlink:href="#H" transform="matrix(9.75 0 0 -9.75 255.293 29.798)"/><use xlink:href="#A" transform="matrix(9.75 0 0 -9.75 261.095 29.684)"/><use xlink:href="#J" transform="matrix(9.75 0 0 -9.75 266.757 29.798)"/><use xlink:href="#z" transform="matrix(9.75 0 0 -9.75 272.473 29.684)"/><use xlink:href="#u" transform="matrix(9.75 0 0 -9.75 274.822 29.798)"/><symbol id="K"><path d="M.424.052a.175.175 0 00-.005-.04.02.02 0 00-.006-.01A.016.016 0 00.403 0H.042C.033 0 .027 0 .022.002a.025.025 0 00-.013.007.04.04 0 00-.007.017.216.216 0 000 .055.073.073 0 00.005.02.093.093 0 00.01.018l.016.02.11.116A.593.593 0 01.225.37a.185.185 0 01.02.08.085.085 0 01-.02.055A.064.064 0 01.2.521a.092.092 0 01-.035.006A.165.165 0 01.113.52.243.243 0 01.046.487C.04.482.033.479.03.479A.012.012 0 00.02.482a.023.023 0 00-.005.01.348.348 0 00-.001.078.034.034 0 00.004.01.05.05 0 00.008.01.255.255 0 00.063.032.363.363 0 00.113.021A.263.263 0 00.289.63.166.166 0 00.35.596.134.134 0 00.386.543.173.173 0 00.398.478a.234.234 0 00-.03-.125.527.527 0 00-.052-.077A1.253 1.253 0 00.226.18L.154.104h.249A.014.014 0 00.41.101a.022.022 0 00.007-.01.054.054 0 00.004-.015.16.16 0 00.002-.024z"/></symbol><use xlink:href="#K" transform="matrix(10.725 0 0 -10.725 27.336 45.57)"/><symbol id="L"><path d="M.12.399A.162.162 0 00.042.46a.164.164 0 00-.024.087c0 .053.019.097.056.132.037.035.09.052.159.052C.3.731.353.714.39.68A.172.172 0 00.448.547.157.157 0 00.349.399a.19.19 0 00.09-.07.184.184 0 00.032-.106.215.215 0 00-.064-.161A.229.229 0 00.24 0a.254.254 0 00-.162.051A.2.2 0 000 .217c0 .039.01.075.029.107.019.032.05.057.09.075m.029.138C.148.51.156.488.17.473A.085.085 0 01.233.45C.259.45.28.458.295.473A.087.087 0 01.32.538a.082.082 0 01-.024.061.082.082 0 01-.06.024A.085.085 0 01.17.599.084.084 0 01.148.537M.135.23c0-.037.01-.067.03-.088A.095.095 0 01.236.11c.028 0 .052.01.07.03.019.021.028.05.028.089 0 .034-.01.06-.028.08A.093.093 0 01.235.34C.2.34.176.33.16.306A.128.128 0 01.135.23z"/></symbol><symbol id="M"><path d="M0 .381V.52h.137V.38H0M0 0v.137h.137V0H0z"/></symbol><symbol id="N"><path d="M.232.731c.07 0 .124-.025.163-.074C.442.598.465.5.465.365.465.23.44.132.395.073A.195.195 0 00.232 0a.205.205 0 00-.168.08C.021.134 0 .23 0 .367 0 .5.023.598.07.657a.195.195 0 00.162.074m0-.114A.068.068 0 01.188.601C.175.591.165.571.158.544A.785.785 0 01.144.365c0-.084.004-.142.012-.173C.165.16.176.14.188.129A.07.07 0 01.232.114a.07.07 0 01.045.015C.29.14.3.16.307.187c.01.035.014.094.014.178A.775.775 0 01.31.538C.3.57.289.591.276.601a.066.066 0 01-.044.016z"/></symbol><symbol id="O"><path d="M0 0v.137h.27V0H0z"/></symbol><symbol id="P"><path d="M.014.178l.132.015a.096.096 0 01.026-.06.075.075 0 01.054-.02c.028 0 .052.013.072.04.02.025.033.08.038.161a.164.164 0 00-.129-.06.194.194 0 00-.146.065A.24.24 0 000 .49C0 .562.021.62.064.665A.22.22 0 00.23.73.222.222 0 00.41.647C.454.591.477.499.477.37.478.24.454.145.405.087A.235.235 0 00.215 0 .201.201 0 00.08.044a.217.217 0 00-.066.134m.31.3c0 .044-.01.079-.03.103a.09.09 0 01-.07.037.08.08 0 01-.064-.03C.143.567.135.534.135.488c0-.046.009-.08.027-.102A.086.086 0 01.23.355c.027 0 .049.01.067.031.018.021.027.052.027.092z"/></symbol><symbol id="Q"><path d="M0 .202l.133.016A.126.126 0 01.167.141.093.093 0 01.234.114c.029 0 .052.01.072.032.02.021.029.05.029.087 0 .034-.01.062-.028.082a.089.089 0 01-.068.03.24.24 0 01-.063-.01l.015.112C.23.446.257.454.276.47c.02.017.03.04.03.068a.078.078 0 01-.022.058.077.077 0 01-.057.021.083.083 0 01-.06-.024.115.115 0 01-.03-.072L.01.544a.283.283 0 00.04.103.18.18 0 00.074.061.249.249 0 00.107.023.213.213 0 00.162-.064.168.168 0 00.05-.12C.443.485.41.434.34.397a.166.166 0 00.098-.06.17.17 0 00.038-.11.215.215 0 00-.07-.16A.237.237 0 00.237 0a.237.237 0 00-.162.056A.22.22 0 000 .202z"/></symbol><use xlink:href="#L" transform="matrix(9.75 0 0 -9.75 84.27 46.308)"/><use xlink:href="#M" transform="matrix(9.75 0 0 -9.75 90.253 46.184)"/><use xlink:href="#N" transform="matrix(9.75 0 0 -9.75 92.952 46.303)"/><use xlink:href="#N" transform="matrix(9.75 0 0 -9.75 98.373 46.303)"/><use xlink:href="#O" transform="matrix(9.75 0 0 -9.75 103.932 44.322)"/><use xlink:href="#P" transform="matrix(9.75 0 0 -9.75 106.94 46.308)"/><use xlink:href="#M" transform="matrix(9.75 0 0 -9.75 113.01 46.184)"/><use xlink:href="#Q" transform="matrix(9.75 0 0 -9.75 115.666 46.303)"/><use xlink:href="#N" transform="matrix(9.75 0 0 -9.75 121.13 46.303)"/><symbol id="R"><path d="M.447.18A.185.185 0 00.432.105.148.148 0 00.388.047.203.203 0 00.316.012.378.378 0 00.216 0a.37.37 0 00-.093.01.195.195 0 00-.068.032.133.133 0 00-.041.051.172.172 0 00-.006.12C.013.23.02.245.032.259a.21.21 0 00.04.038.394.394 0 00.054.034.334.334 0 00-.045.03.202.202 0 00-.034.034.144.144 0 00-.029.09c0 .026.004.049.013.07.01.02.023.038.04.053.018.015.04.027.067.035a.319.319 0 00.093.012.311.311 0 00.09-.01A.166.166 0 00.38.61.123.123 0 00.418.562.163.163 0 00.429.499.133.133 0 00.42.454.163.163 0 00.4.414.21.21 0 00.366.375.279.279 0 00.321.345.392.392 0 00.374.312a.21.21 0 00.04-.039.15.15 0 00.033-.092M.305.487A.091.091 0 01.3.518a.065.065 0 01-.042.038.118.118 0 01-.035.005C.195.56.175.554.162.54A.067.067 0 01.142.49c0-.01.001-.02.004-.03A.084.084 0 01.163.437.147.147 0 01.19.413.561.561 0 01.231.39a.196.196 0 01.055.045c.013.016.02.034.02.053M.32.172a.081.081 0 01-.007.033.082.082 0 01-.019.028.168.168 0 01-.032.025.51.51 0 01-.045.025.382.382 0 01-.04-.024A.147.147 0 01.15.233.098.098 0 01.132.205.092.092 0 01.126.173c0-.026.009-.045.025-.058C.167.1.192.095.225.095c.032 0 .055.007.07.02A.07.07 0 01.32.172z"/></symbol><symbol id="S"><path d="M.138.392A.144.144 0 00.134.358.05.05 0 00.123.335.044.044 0 00.102.323.135.135 0 00.068.319a.135.135 0 00-.033.004.047.047 0 00-.021.012.048.048 0 00-.011.023A.167.167 0 000 .392c0 .014.001.026.003.035.002.01.005.017.01.023.006.006.013.01.022.013.009.002.02.004.033.004A.119.119 0 00.102.463.044.044 0 00.122.45.05.05 0 00.135.427.153.153 0 00.138.392m0-.319A.15.15 0 00.134.04.05.05 0 00.123.016.041.041 0 00.102.004.119.119 0 00.068 0a.119.119 0 00-.033.004.044.044 0 00-.021.012.048.048 0 00-.011.023A.174.174 0 000 .073c0 .014.001.025.003.035.002.01.005.017.01.023.006.006.013.01.022.013.009.002.02.003.033.003A.119.119 0 00.102.144.041.041 0 00.122.13.05.05 0 00.135.108.15.15 0 00.138.073z"/></symbol><symbol id="T"><path d="M.452.33A.7.7 0 00.439.193.297.297 0 00.4.089.184.184 0 00.328.023.231.231 0 00.22 0a.233.233 0 00-.108.022.17.17 0 00-.067.064.297.297 0 00-.035.102.864.864 0 00.002.273.31.31 0 00.04.104c.019.03.043.051.072.066.03.016.066.023.108.023C.275.654.31.647.339.632A.165.165 0 00.407.568.285.285 0 00.442.466.855.855 0 00.452.33M.322.323a1.125 1.125 0 01-.01.14.2.2 0 01-.013.042.08.08 0 01-.018.028.06.06 0 01-.024.015.099.099 0 01-.03.005.078.078 0 01-.048-.014.093.093 0 01-.03-.042.275.275 0 01-.015-.07.93.93 0 010-.208.266.266 0 01.017-.07.078.078 0 01.03-.037.087.087 0 01.044-.01.071.071 0 01.06.024A.098.098 0 01.3.157.374.374 0 01.32.255C.322.275.322.3.322.323z"/></symbol><symbol id="U"><path d="M.249.05A.101.101 0 00.243.012C.24.004.233 0 .226 0H.023a.018.018 0 00-.018.011.103.103 0 00-.005.04c0 .018.002.03.005.038.004.008.01.012.018.012h.203C.23.1.233.1.236.098A.019.019 0 00.243.09.046.046 0 00.247.074.16.16 0 00.25.051z"/></symbol><symbol id="V"><path d="M.436.356a.855.855 0 00-.004-.08A.45.45 0 00.387.12.22.22 0 00.263.016.305.305 0 00.118.003.35.35 0 00.05.02a.06.06 0 00-.017.01.032.032 0 00-.008.014.543.543 0 00.001.068C.028.117.03.12.032.12A.015.015 0 00.04.122.253.253 0 01.161.1a.15.15 0 01.07.014c.018.01.034.023.045.04.012.016.02.035.026.057a.314.314 0 01.01.069.237.237 0 00-.127-.035.244.244 0 00-.086.013.14.14 0 00-.09.098.305.305 0 00.005.168.188.188 0 00.111.114c.028.01.06.016.097.016.029 0 .055-.003.076-.01A.167.167 0 00.395.568a.23.23 0 00.024-.06.8.8 0 00.017-.152M.309.374A.545.545 0 01.303.46a.176.176 0 01-.018.056.07.07 0 01-.03.03.09.09 0 01-.04.009.088.088 0 01-.04-.009.075.075 0 01-.028-.022A.103.103 0 01.131.49.215.215 0 01.13.4.092.092 0 01.145.368a.063.063 0 01.026-.02.107.107 0 01.04-.006.167.167 0 01.098.032z"/></symbol><symbol id="W"><path d="M.422.196A.174.174 0 00.354.05.231.231 0 00.277.014.36.36 0 00.118.005.352.352 0 00.032.03a.105.105 0 00-.018.012.03.03 0 00-.007.008.146.146 0 00-.004.012.154.154 0 00-.003.04.09.09 0 00.004.033C.007.14.01.144.016.144a.43.43 0 01.09-.035.23.23 0 01.104 0c.014.004.026.01.035.017a.07.07 0 01.022.028.09.09 0 01.007.037.087.087 0 01-.009.04.077.077 0 01-.025.03.12.12 0 01-.043.019.233.233 0 01-.06.007H.083L.072.288a.016.016 0 00-.008.007A.046.046 0 00.06.31a.259.259 0 000 .048.05.05 0 00.004.014.017.017 0 00.007.007.025.025 0 00.01.002h.055c.02 0 .036.002.05.006.015.005.027.011.037.02a.08.08 0 01.023.029.094.094 0 01.003.068.065.065 0 01-.017.025.067.067 0 01-.026.017.145.145 0 01-.087-.001A.276.276 0 01.048.51C.04.506.034.503.03.503c-.003 0-.005 0-.007.002a.014.014 0 00-.005.007.056.056 0 00-.003.014.237.237 0 00.002.057.05.05 0 00.003.01A.04.04 0 00.027.6l.02.014a.322.322 0 00.156.04C.235.654.262.65.286.643a.162.162 0 00.06-.032.124.124 0 00.036-.05.19.19 0 00.005-.12A.129.129 0 00.33.364.158.158 0 00.28.345V.343A.179.179 0 00.34.326.146.146 0 00.413.249a.14.14 0 00.01-.053z"/></symbol><use xlink:href="#R" transform="matrix(10.725 0 0 -10.725 236.444 45.69)"/><use xlink:href="#S" transform="matrix(10.725 0 0 -10.725 242.39 45.637)"/><use xlink:href="#T" transform="matrix(10.725 0 0 -10.725 244.8 45.69)"/><use xlink:href="#T" transform="matrix(10.725 0 0 -10.725 250.227 45.69)"/><use xlink:href="#U" transform="matrix(10.725 0 0 -10.725 255.664 43.48)"/><use xlink:href="#V" transform="matrix(10.725 0 0 -10.725 258.982 45.69)"/><use xlink:href="#S" transform="matrix(10.725 0 0 -10.725 264.902 45.637)"/><use xlink:href="#W" transform="matrix(10.725 0 0 -10.725 267.458 45.69)"/><use xlink:href="#T" transform="matrix(10.725 0 0 -10.725 272.738 45.69)"/><use xlink:href="#W" transform="matrix(10.725 0 0 -10.725 27.32 62.19)"/><symbol id="X"><path d="M0 0v.716h.49V.595H.146v-.17h.298v-.12H.145V0H0z"/></symbol><symbol id="Y"><path d="M0 .16l.138.02A.102.102 0 01.173.12.121.121 0 01.25.1C.284.1.31.105.329.118.34.128.347.14.347.155c0 .01-.004.02-.01.026A.11.11 0 01.29.2a.74.74 0 00-.21.067.134.134 0 00-.062.117c0 .045.018.082.053.113.036.03.09.046.165.046A.288.288 0 00.396.507a.177.177 0 00.07-.102L.338.38a.08.08 0 01-.031.046.114.114 0 01-.066.016.15.15 0 01-.078-.015A.033.033 0 01.146.4C.146.39.151.382.16.375A.514.514 0 01.288.337.382.382 0 00.441.276.127.127 0 00.484.174.157.157 0 00.424.05C.386.017.327 0 .25 0A.29.29 0 00.08.043.198.198 0 000 .16z"/></symbol><symbol id="Z"><path d="M.293 0v.144H0v.12L.31.72h.116V.265h.089V.144h-.09V0H.294m0 .265v.244L.128.265h.165z"/></symbol><use xlink:href="#X" transform="matrix(9.75 0 0 -9.75 242.094 62.684)"/><use xlink:href="#z" transform="matrix(9.75 0 0 -9.75 248.022 62.684)"/><use xlink:href="#Y" transform="matrix(9.75 0 0 -9.75 250.252 62.798)"/><use xlink:href="#C" transform="matrix(9.75 0 0 -9.75 256.215 62.684)"/><use xlink:href="#Z" transform="matrix(9.75 0 0 -9.75 261.046 62.684)"/><use xlink:href="#N" transform="matrix(9.75 0 0 -9.75 266.696 62.803)"/><symbol id="aa"><path d="M.354.582L.353.557A.046.046 0 00.349.542a.023.023 0 00-.006-.01A.012.012 0 00.335.53H.13V.36h.194C.326.36.328.359.33.357A.019.019 0 00.336.35.046.046 0 00.34.333.17.17 0 00.336.27a.023.023 0 00-.005-.01.013.013 0 00-.008-.002H.129V.02A.015.015 0 00.126.012a.024.024 0 00-.01-.007.271.271 0 00-.102 0 .028.028 0 00-.011.007.015.015 0 00-.003.01v.572C0 .61.004.62.01.625a.04.04 0 00.028.01h.297A.012.012 0 00.343.632.019.019 0 00.35.623.047.047 0 00.353.607.18.18 0 00.354.582z"/></symbol><symbol id="ab"><path d="M.389.049c0-.01 0-.017-.002-.024A.053.053 0 00.383.01.019.019 0 00.377.002.013.013 0 00.369 0H.021C.018 0 .015 0 .013.002A.023.023 0 00.007.01a.067.067 0 00-.004.015.231.231 0 000 .047.068.068 0 00.003.016.022.022 0 00.007.008A.012.012 0 00.02.1h.117V.51L.037.454A.083.083 0 00.018.447C.014.447.01.447.007.45A.028.028 0 000 .465a.217.217 0 00.002.06.024.024 0 00.005.01.061.061 0 00.01.007L.153.63A.017.017 0 00.16.633a.517.517 0 00.097 0C.26.632.263.63.264.628A.013.013 0 00.266.621V.1H.37A.012.012 0 00.377.096.017.017 0 00.383.088.046.046 0 00.387.072.155.155 0 00.39.05z"/></symbol><symbol id="ac"><path d="M.469.185A.105.105 0 00.463.146C.46.138.456.134.45.134H.394V.02A.014.014 0 00.39.01.023.023 0 00.38.006a.253.253 0 00-.098 0 .023.023 0 00-.01.006A.016.016 0 00.27.02v.114H.028L.016.135a.02.02 0 00-.01.008.06.06 0 00-.005.018.258.258 0 000 .057.139.139 0 00.016.056l.195.347a.019.019 0 00.009.007.17.17 0 00.043.009.66.66 0 00.109-.005.04.04 0 00.016-.006.012.012 0 00.005-.01v-.38H.45C.455.236.46.232.463.224a.096.096 0 00.006-.04M.27.528H.269L.103.237H.27v.29z"/></symbol><use xlink:href="#aa" transform="matrix(10.725 0 0 -10.725 395.113 62.1)"/><use xlink:href="#k" transform="matrix(10.725 0 0 -10.725 399.847 62.1)"/><use xlink:href="#f" transform="matrix(10.725 0 0 -10.725 402.297 62.19)"/><use xlink:href="#ab" transform="matrix(10.725 0 0 -10.725 406.958 62.07)"/><use xlink:href="#ac" transform="matrix(10.725 0 0 -10.725 411.799 62.1)"/><use xlink:href="#T" transform="matrix(10.725 0 0 -10.725 417.335 62.19)"/><use xlink:href="#ac" transform="matrix(10.725 0 0 -10.725 27.064 78.6)"/><symbol id="ad"><path d="M0 .196L.137.21A.118.118 0 01.17.137a.095.095 0 01.14.008C.33.168.34.203.34.25.34.294.33.327.31.349a.097.097 0 01-.077.033A.14.14 0 01.128.33L.017.346l.07.372H.45V.59H.19L.17.468A.206.206 0 00.418.425.24.24 0 00.48.252a.258.258 0 00-.05-.157A.227.227 0 00.235 0a.24.24 0 00-.161.053A.22.22 0 000 .196z"/></symbol><use xlink:href="#P" transform="matrix(9.75 0 0 -9.75 233.434 79.308)"/><use xlink:href="#M" transform="matrix(9.75 0 0 -9.75 239.503 79.184)"/><use xlink:href="#Z" transform="matrix(9.75 0 0 -9.75 241.974 79.184)"/><use xlink:href="#ad" transform="matrix(9.75 0 0 -9.75 247.647 79.303)"/><use xlink:href="#O" transform="matrix(9.75 0 0 -9.75 253.182 77.322)"/><use xlink:href="#C" transform="matrix(9.75 0 0 -9.75 256.653 79.184)"/><use xlink:href="#C" transform="matrix(9.75 0 0 -9.75 262.074 79.184)"/><use xlink:href="#M" transform="matrix(9.75 0 0 -9.75 267.68 79.184)"/><use xlink:href="#C" transform="matrix(9.75 0 0 -9.75 270.742 79.184)"/><use xlink:href="#ad" transform="matrix(9.75 0 0 -9.75 275.825 79.303)"/><symbol id="ae"><path d="M.414.216A.223.223 0 00.396.125a.186.186 0 00-.05-.068.225.225 0 00-.078-.042A.328.328 0 00.11.004a.4.4 0 00-.082.02.097.097 0 00-.018.01.028.028 0 00-.006.008.063.063 0 00-.003.01.426.426 0 00.002.076.021.021 0 00.005.008.01.01 0 00.007.003.369.369 0 01.081-.03.255.255 0 01.108 0c.015.003.028.01.04.018.01.009.018.02.024.033a.114.114 0 01.009.047.11.11 0 01-.007.041.075.075 0 01-.023.031.104.104 0 01-.041.02.42.42 0 01-.112.003A.344.344 0 00.05.299C.041.299.035.3.031.306S.025.319.025.332v.274c0 .013.002.023.007.028.005.006.014.01.025.01h.299A.014.014 0 00.364.64.02.02 0 00.371.63a.18.18 0 000-.084C.367.538.362.533.356.533H.131V.398A.4.4 0 00.201.4.308.308 0 00.29.389.175.175 0 00.359.354.146.146 0 00.4.296a.207.207 0 00.014-.08z"/></symbol><use xlink:href="#V" transform="matrix(10.725 0 0 -10.725 384.97 78.69)"/><use xlink:href="#S" transform="matrix(10.725 0 0 -10.725 390.89 78.637)"/><use xlink:href="#ac" transform="matrix(10.725 0 0 -10.725 393.19 78.6)"/><use xlink:href="#ae" transform="matrix(10.725 0 0 -10.725 398.93 78.69)"/><use xlink:href="#U" transform="matrix(10.725 0 0 -10.725 404.164 76.48)"/><use xlink:href="#ab" transform="matrix(10.725 0 0 -10.725 407.912 78.57)"/><use xlink:href="#ab" transform="matrix(10.725 0 0 -10.725 413.339 78.57)"/><use xlink:href="#S" transform="matrix(10.725 0 0 -10.725 418.828 78.637)"/><use xlink:href="#ab" transform="matrix(10.725 0 0 -10.725 421.715 78.57)"/><use xlink:href="#ae" transform="matrix(10.725 0 0 -10.725 426.87 78.69)"/><use xlink:href="#ad" transform="matrix(9.75 0 0 -9.75 27.308 95.053)"/><symbol id="af"><path d="M.465.553L.332.538a.097.097 0 01-.025.06.074.074 0 01-.054.02A.09.09 0 01.18.58C.16.553.147.5.142.417a.16.16 0 00.128.06.194.194 0 00.147-.065.237.237 0 00.061-.17.242.242 0 00-.064-.176A.22.22 0 00.248 0 .222.222 0 00.07.084C.023.14 0 .232 0 .36c0 .132.024.226.073.284a.235.235 0 00.189.087C.316.731.36.716.396.685A.212.212 0 00.465.553m-.311-.3c0-.044.01-.079.03-.103a.09.09 0 01.07-.036.08.08 0 01.064.03c.017.02.026.052.026.097 0 .047-.01.08-.028.102a.086.086 0 01-.068.033.086.086 0 01-.067-.031C.163.325.154.294.154.253z"/></symbol><use xlink:href="#af" transform="matrix(9.75 0 0 -9.75 27.29 110.803)"/><symbol id="ag"><path d="M.427.58A.279.279 0 00.423.537.466.466 0 00.412.502L.204.02A.028.028 0 00.196.01.033.033 0 00.183.003a.426.426 0 00-.117.003C.062.01.06.014.06.017.06.02.06.025.063.03l.223.493H.021C.014.523.008.528.005.537A.138.138 0 000 .58a.18.18 0 00.005.042.027.027 0 00.007.01.014.014 0 00.009.003h.375c.006 0 .01 0 .015-.002A.015.015 0 00.42.625.046.046 0 00.425.61.165.165 0 00.427.58z"/></symbol><use xlink:href="#ag" transform="matrix(10.725 0 0 -10.725 27.3 126.6)"/><symbol id="ah"><path d="M0 .366C0 .439.01.5.033.549a.34.34 0 00.066.098c.028.03.06.05.093.065A.393.393 0 00.346.74C.452.74.536.708.6.642A.376.376 0 00.694.37.376.376 0 00.6.098.334.334 0 00.348 0a.337.337 0 00-.254.097A.37.37 0 000 .366M.149.37C.149.29.168.228.205.186A.183.183 0 01.348.124c.057 0 .104.02.141.062.037.041.056.104.056.187C.545.455.527.516.49.556a.182.182 0 01-.143.06.183.183 0 01-.144-.06C.167.513.149.452.149.37z"/></symbol><symbol id="ai"><path d="M0 .716h.128V.64A.191.191 0 00.29.728C.35.728.4.704.443.657A.287.287 0 00.506.459.296.296 0 00.442.257.198.198 0 00.21.203.264.264 0 00.137.26V0H0v.716m.136-.25c0-.059.011-.102.034-.13A.106.106 0 01.255.294a.1.1 0 01.08.039C.354.358.365.4.365.458c0 .055-.01.095-.033.122a.101.101 0 01-.08.04.105.105 0 01-.084-.04C.147.554.136.516.136.465z"/></symbol><symbol id="aj"><path d="M.294.53V.42H.201V.213C.2.17.2.145.203.138A.032.032 0 01.215.12.04.04 0 01.24.114c.012 0 .03.004.055.013L.306.021A.273.273 0 00.197 0 .175.175 0 00.13.012a.102.102 0 00-.044.032.132.132 0 00-.019.054.665.665 0 00-.004.097V.42H0v.11h.063v.102l.138.08V.53h.093z"/></symbol><use xlink:href="#ah" transform="matrix(9.75 0 0 -9.75 96.299 127.303)"/><use xlink:href="#ai" transform="matrix(9.75 0 0 -9.75 104.112 129.107)"/><use xlink:href="#aj" transform="matrix(9.75 0 0 -9.75 109.546 127.298)"/><use xlink:href="#z" transform="matrix(9.75 0 0 -9.75 113.345 127.184)"/><use xlink:href="#ah" transform="matrix(9.75 0 0 -9.75 247.799 127.303)"/><use xlink:href="#ai" transform="matrix(9.75 0 0 -9.75 255.612 129.107)"/><use xlink:href="#aj" transform="matrix(9.75 0 0 -9.75 261.046 127.298)"/><use xlink:href="#z" transform="matrix(9.75 0 0 -9.75 264.845 127.184)"/><use xlink:href="#W" transform="matrix(10.725 0 0 -10.725 323.57 126.69)"/><use xlink:href="#S" transform="matrix(10.725 0 0 -10.725 329.39 126.637)"/><use xlink:href="#T" transform="matrix(10.725 0 0 -10.725 331.8 126.69)"/><use xlink:href="#T" transform="matrix(10.725 0 0 -10.725 337.227 126.69)"/><symbol id="ak"><path d="M0 0v.716h.216l.13-.488.129.488H.69V0H.557v.563L.415 0h-.14l-.14.563V0H0z"/></symbol><use xlink:href="#ak" transform="matrix(9.75 0 0 -9.75 395.815 127.184)"/><use xlink:href="#z" transform="matrix(9.75 0 0 -9.75 403.947 127.184)"/><use xlink:href="#J" transform="matrix(9.75 0 0 -9.75 406.352 127.298)"/><use xlink:href="#I" transform="matrix(9.75 0 0 -9.75 412.011 127.184)"/><use xlink:href="#w" transform="matrix(9.75 0 0 -9.75 415.552 127.298)"/><use xlink:href="#R" transform="matrix(10.725 0 0 -10.725 27.194 143.19)"/><symbol id="al"><path d="M.481.127V0H0a.33.33 0 00.047.137C.073.18.124.237.2.309a.97.97 0 01.114.117.151.151 0 01.028.084c0 .03-.008.054-.025.07A.09.09 0 01.25.605.091.091 0 01.182.579C.165.562.155.533.152.493L.017.507c.008.075.034.13.077.162.043.033.096.05.16.05C.326.719.38.699.42.662A.187.187 0 00.481.52.246.246 0 00.463.427.37.37 0 00.41.336a.879.879 0 00-.09-.091 1.565 1.565 0 01-.083-.08.245.245 0 01-.028-.038h.273z"/></symbol><use xlink:href="#al" transform="matrix(9.75 0 0 -9.75 84.118 143.684)"/><use xlink:href="#M" transform="matrix(9.75 0 0 -9.75 90.253 143.684)"/><use xlink:href="#N" transform="matrix(9.75 0 0 -9.75 92.952 143.803)"/><use xlink:href="#N" transform="matrix(9.75 0 0 -9.75 98.373 143.803)"/><use xlink:href="#O" transform="matrix(9.75 0 0 -9.75 103.932 141.822)"/><use xlink:href="#Q" transform="matrix(9.75 0 0 -9.75 106.998 143.803)"/><use xlink:href="#M" transform="matrix(9.75 0 0 -9.75 113.01 143.684)"/><use xlink:href="#Q" transform="matrix(9.75 0 0 -9.75 115.666 143.803)"/><use xlink:href="#N" transform="matrix(9.75 0 0 -9.75 121.13 143.803)"/><use xlink:href="#al" transform="matrix(9.75 0 0 -9.75 235.618 143.684)"/><use xlink:href="#M" transform="matrix(9.75 0 0 -9.75 241.753 143.684)"/><use xlink:href="#N" transform="matrix(9.75 0 0 -9.75 244.452 143.803)"/><use xlink:href="#N" transform="matrix(9.75 0 0 -9.75 249.873 143.803)"/><use xlink:href="#O" transform="matrix(9.75 0 0 -9.75 255.432 141.822)"/><use xlink:href="#Q" transform="matrix(9.75 0 0 -9.75 258.498 143.803)"/><use xlink:href="#M" transform="matrix(9.75 0 0 -9.75 264.51 143.684)"/><use xlink:href="#Q" transform="matrix(9.75 0 0 -9.75 267.166 143.803)"/><use xlink:href="#N" transform="matrix(9.75 0 0 -9.75 272.63 143.803)"/><symbol id="am"><path d="M0 0v.716h.232a.841.841 0 00.172-.01.187.187 0 00.103-.071.221.221 0 00.041-.14.234.234 0 00-.024-.11A.197.197 0 00.39.28a.825.825 0 00-.15-.01H.145V0H0m.145.595V.392h.079c.057 0 .095.003.114.01.02.008.034.02.045.036a.095.095 0 01.016.056.092.092 0 01-.023.064.1.1 0 01-.058.032.695.695 0 01-.104.005h-.07z"/></symbol><use xlink:href="#am" transform="matrix(9.75 0 0 -9.75 314.084 143.684)"/><use xlink:href="#I" transform="matrix(9.75 0 0 -9.75 320.511 143.684)"/><use xlink:href="#u" transform="matrix(9.75 0 0 -9.75 324.009 143.798)"/><use xlink:href="#J" transform="matrix(9.75 0 0 -9.75 329.487 143.798)"/><use xlink:href="#aj" transform="matrix(9.75 0 0 -9.75 334.65 143.798)"/><use xlink:href="#z" transform="matrix(9.75 0 0 -9.75 338.45 143.684)"/><use xlink:href="#J" transform="matrix(9.75 0 0 -9.75 340.855 143.798)"/><use xlink:href="#u" transform="matrix(9.75 0 0 -9.75 346.22 143.798)"/><symbol id="an"><path d="M0 .579v.127h.47v-.1A.963.963 0 01.23 0H.095a1.014 1.014 0 00.216.579H0z"/></symbol><use xlink:href="#al" transform="matrix(9.75 0 0 -9.75 384.868 143.684)"/><use xlink:href="#M" transform="matrix(9.75 0 0 -9.75 391.003 143.684)"/><use xlink:href="#N" transform="matrix(9.75 0 0 -9.75 393.702 143.803)"/><use xlink:href="#N" transform="matrix(9.75 0 0 -9.75 399.123 143.803)"/><use xlink:href="#O" transform="matrix(9.75 0 0 -9.75 404.682 141.822)"/><use xlink:href="#C" transform="matrix(9.75 0 0 -9.75 408.153 143.684)"/><use xlink:href="#an" transform="matrix(9.75 0 0 -9.75 413.217 143.684)"/><use xlink:href="#M" transform="matrix(9.75 0 0 -9.75 419.18 143.684)"/><use xlink:href="#C" transform="matrix(9.75 0 0 -9.75 422.242 143.684)"/><use xlink:href="#N" transform="matrix(9.75 0 0 -9.75 427.3 143.803)"/><use xlink:href="#P" transform="matrix(9.75 0 0 -9.75 27.184 159.558)"/><use xlink:href="#C" transform="matrix(9.75 0 0 -9.75 24.646 175.184)"/><use xlink:href="#N" transform="matrix(9.75 0 0 -9.75 29.705 175.303)"/><use xlink:href="#ab" transform="matrix(10.725 0 0 -10.725 24.65 191.07)"/><use xlink:href="#ab" transform="matrix(10.725 0 0 -10.725 30.077 191.07)"/><use xlink:href="#ab" transform="matrix(10.725 0 0 -10.725 24.65 207.57)"/><use xlink:href="#K" transform="matrix(10.725 0 0 -10.725 29.763 207.57)"/><use xlink:href="#C" transform="matrix(9.75 0 0 -9.75 76.396 208.184)"/><use xlink:href="#L" transform="matrix(9.75 0 0 -9.75 81.441 208.308)"/><use xlink:href="#M" transform="matrix(9.75 0 0 -9.75 87.424 208.184)"/><use xlink:href="#Z" transform="matrix(9.75 0 0 -9.75 89.895 208.184)"/><use xlink:href="#N" transform="matrix(9.75 0 0 -9.75 95.544 208.303)"/><use xlink:href="#ao" transform="matrix(9.75 0 0 -9.75 100.556 208.184)"/><use xlink:href="#O" transform="matrix(9.75 0 0 -9.75 103.804 206.322)"/><use xlink:href="#ao" transform="matrix(9.75 0 0 -9.75 106.503 208.184)"/><use xlink:href="#C" transform="matrix(9.75 0 0 -9.75 109.975 208.184)"/><use xlink:href="#P" transform="matrix(9.75 0 0 -9.75 114.934 208.308)"/><use xlink:href="#M" transform="matrix(9.75 0 0 -9.75 121.003 208.184)"/><use xlink:href="#ad" transform="matrix(9.75 0 0 -9.75 123.726 208.303)"/><use xlink:href="#N" transform="matrix(9.75 0 0 -9.75 129.123 208.303)"/><use xlink:href="#C" transform="matrix(9.75 0 0 -9.75 152.146 208.184)"/><use xlink:href="#L" transform="matrix(9.75 0 0 -9.75 157.191 208.308)"/><use xlink:href="#M" transform="matrix(9.75 0 0 -9.75 163.174 208.184)"/><use xlink:href="#Q" transform="matrix(9.75 0 0 -9.75 165.83 208.303)"/><use xlink:href="#N" transform="matrix(9.75 0 0 -9.75 171.294 208.303)"/><use xlink:href="#ao" transform="matrix(9.75 0 0 -9.75 176.306 208.184)"/><use xlink:href="#O" transform="matrix(9.75 0 0 -9.75 179.554 206.322)"/><use xlink:href="#ao" transform="matrix(9.75 0 0 -9.75 182.253 208.184)"/><use xlink:href="#C" transform="matrix(9.75 0 0 -9.75 185.725 208.184)"/><use xlink:href="#P" transform="matrix(9.75 0 0 -9.75 190.684 208.308)"/><use xlink:href="#M" transform="matrix(9.75 0 0 -9.75 196.753 208.184)"/><use xlink:href="#Z" transform="matrix(9.75 0 0 -9.75 199.224 208.184)"/><use xlink:href="#N" transform="matrix(9.75 0 0 -9.75 204.873 208.303)"/><use xlink:href="#ab" transform="matrix(10.725 0 0 -10.725 24.65 224.07)"/><use xlink:href="#W" transform="matrix(10.725 0 0 -10.725 29.747 224.19)"/><symbol id="ap"><path d="M.344.012v.077A.207.207 0 00.078.023a.135.135 0 00-.06.064A.288.288 0 000 .202V.53h.137V.292C.137.219.14.174.145.158a.076.076 0 01.027-.04.086.086 0 01.051-.014c.024 0 .045.007.063.02A.1.1 0 01.324.17c.007.02.01.066.01.14v.22h.138V.01H.344z"/></symbol><use xlink:href="#am" transform="matrix(9.75 0 0 -9.75 88.334 224.684)"/><use xlink:href="#I" transform="matrix(9.75 0 0 -9.75 94.761 224.684)"/><use xlink:href="#H" transform="matrix(9.75 0 0 -9.75 98.22 224.798)"/><use xlink:href="#ap" transform="matrix(9.75 0 0 -9.75 104.004 224.798)"/><use xlink:href="#Y" transform="matrix(9.75 0 0 -9.75 109.508 224.798)"/><use xlink:href="#y" transform="matrix(9.75 0 0 -9.75 115.3 224.684)"/><symbol id="aq"><path d="M0 0v.71h.145V.12h.359V0H0z"/></symbol><use xlink:href="#aq" transform="matrix(9.75 0 0 -9.75 173.122 224.684)"/><use xlink:href="#H" transform="matrix(9.75 0 0 -9.75 178.632 224.798)"/><use xlink:href="#J" transform="matrix(9.75 0 0 -9.75 184.148 224.798)"/><use xlink:href="#ak" transform="matrix(9.75 0 0 -9.75 240.565 224.684)"/><use xlink:href="#u" transform="matrix(9.75 0 0 -9.75 248.344 224.798)"/><use xlink:href="#aj" transform="matrix(9.75 0 0 -9.75 253.565 224.798)"/><use xlink:href="#N" transform="matrix(9.75 0 0 -9.75 257.074 224.803)"/><use xlink:href="#Z" transform="matrix(9.75 0 0 -9.75 262.266 224.684)"/><use xlink:href="#Z" transform="matrix(9.75 0 0 -9.75 267.687 224.684)"/><use xlink:href="#ak" transform="matrix(9.75 0 0 -9.75 316.315 224.684)"/><use xlink:href="#u" transform="matrix(9.75 0 0 -9.75 324.094 224.798)"/><use xlink:href="#aj" transform="matrix(9.75 0 0 -9.75 329.315 224.798)"/><use xlink:href="#N" transform="matrix(9.75 0 0 -9.75 332.824 224.803)"/><use xlink:href="#Z" transform="matrix(9.75 0 0 -9.75 338.016 224.684)"/><use xlink:href="#Z" transform="matrix(9.75 0 0 -9.75 343.437 224.684)"/><use xlink:href="#ab" transform="matrix(10.725 0 0 -10.725 24.65 240.57)"/><use xlink:href="#ac" transform="matrix(10.725 0 0 -10.725 29.49 240.6)"/><use xlink:href="#C" transform="matrix(9.75 0 0 -9.75 245.146 241.184)"/><use xlink:href="#P" transform="matrix(9.75 0 0 -9.75 250.105 241.308)"/><use xlink:href="#M" transform="matrix(9.75 0 0 -9.75 256.174 241.184)"/><use xlink:href="#N" transform="matrix(9.75 0 0 -9.75 258.873 241.303)"/><use xlink:href="#N" transform="matrix(9.75 0 0 -9.75 264.294 241.303)"/><use xlink:href="#C" transform="matrix(9.75 0 0 -9.75 320.896 241.184)"/><use xlink:href="#P" transform="matrix(9.75 0 0 -9.75 325.855 241.308)"/><use xlink:href="#M" transform="matrix(9.75 0 0 -9.75 331.924 241.184)"/><use xlink:href="#N" transform="matrix(9.75 0 0 -9.75 334.623 241.303)"/><use xlink:href="#N" transform="matrix(9.75 0 0 -9.75 340.044 241.303)"/></g></svg>